<?xml version="1.0" standalone="no"?>
<!DOCTYPE svg PUBLIC "-//W3C//DTD SVG 20010904//EN"
 "http://www.w3.org/TR/2001/REC-SVG-20010904/DTD/svg10.dtd">
<svg version="1.0" xmlns="http://www.w3.org/2000/svg"
 width="512.000000pt" height="512.000000pt" viewBox="0 0 512.000000 512.000000"
 preserveAspectRatio="xMidYMid meet">
<g transform="translate(0.000000,512.000000) scale(0.100000,-0.100000)"
fill="#000000" stroke="none">
<path d="M2290 5024 c-415 -47 -785 -181 -1125 -409 -187 -126 -402 -323 -545
-500 -487 -605 -663 -1403 -476 -2161 136 -549 478 -1060 937 -1397 203 -148
456 -281 679 -354 462 -152 946 -168 1414 -47 100 25 203 57 241 74 11 5 45
19 75 31 139 53 376 184 510 282 145 107 343 294 462 437 267 323 455 729 528
1145 19 107 40 335 40 429 0 100 -23 351 -40 436 -57 286 -121 473 -243 710
-234 455 -627 843 -1082 1070 -72 36 -144 70 -160 77 -102 41 -149 58 -220 79
-330 100 -676 134 -995 98z m1103 -486 c44 -23 339 -243 358 -266 27 -35 24
-69 -10 -103 -49 -49 -40 -53 -284 125 -162 118 -187 148 -166 197 10 26 49
57 72 59 5 0 18 -5 30 -12z m-786 -160 c20 -24 31 -47 56 -133 20 -67 94 -303
121 -390 18 -53 21 -77 13 -98 -18 -54 -84 -75 -123 -38 -28 25 -28 26 -141
396 -9 28 -26 83 -39 123 -30 90 -30 94 2 131 32 39 80 42 111 9z m-887 -150
c31 -33 35 -63 14 -98 -295 -476 -319 -509 -369 -494 -36 11 -65 46 -65 77 0
20 29 77 87 171 129 209 214 339 231 354 26 20 79 15 102 -10z m1915 -683 c72
-9 165 -20 208 -25 42 -6 114 -14 160 -20 69 -8 86 -13 105 -35 26 -30 28 -66
6 -99 -21 -33 -47 -37 -145 -25 -46 5 -138 16 -204 24 -66 8 -160 19 -208 25
-96 11 -120 22 -136 57 -17 37 -13 52 18 84 34 34 28 33 196 14z m-1373 -436
c29 -6 78 -23 108 -38 54 -25 150 -111 182 -161 l16 -25 67 68 c189 191 449
196 631 12 87 -88 117 -165 117 -300 1 -108 -16 -181 -61 -270 -84 -169 -253
-350 -470 -504 -119 -84 -282 -181 -306 -181 -26 0 -183 103 -298 195 -330
264 -498 526 -498 776 0 97 17 159 65 234 98 153 275 230 447 194z m-1491 -67
c15 -9 58 -46 96 -82 38 -36 111 -103 163 -150 134 -121 138 -125 146 -154 12
-50 -47 -105 -100 -92 -14 3 -58 36 -99 74 -155 142 -260 236 -283 255 -27 21
-54 67 -54 92 0 25 55 75 82 75 13 0 35 -8 49 -18z m3919 -79 c34 -23 40 -33
40 -69 0 -38 -14 -57 -65 -83 -54 -28 -81 -26 -116 8 -48 49 -32 98 45 136 59
30 64 30 96 8z m-606 -338 c13 -9 29 -28 35 -44 11 -24 5 -43 -44 -167 -31
-76 -62 -152 -70 -169 -7 -16 -27 -67 -45 -112 -17 -47 -41 -89 -53 -98 -32
-22 -74 -19 -102 10 -41 40 -40 43 89 360 79 192 84 202 109 220 27 19 51 19
81 0z m-3636 -205 c18 -11 40 -36 49 -55 16 -34 16 -38 -1 -70 -34 -63 -118
-54 -160 15 -23 40 -20 77 9 105 29 30 59 31 103 5z m269 -456 c83 -28 142
-77 363 -299 289 -291 399 -367 582 -402 82 -16 93 -16 185 1 97 17 109 22
308 124 174 89 299 72 429 -61 80 -82 147 -189 287 -454 123 -234 201 -327
294 -353 199 -56 363 145 616 753 99 237 141 312 202 361 36 29 45 31 115 31
72 0 82 -3 161 -45 82 -44 273 -194 284 -223 6 -16 -83 -156 -170 -270 -126
-163 -361 -380 -553 -508 -85 -57 -323 -185 -375 -202 -11 -3 -38 -13 -60 -22
-153 -60 -305 -100 -515 -137 -101 -17 -539 -17 -640 0 -280 49 -459 103 -675
206 -240 115 -449 262 -638 450 -244 244 -411 504 -542 844 l-28 72 29 31 c97
101 228 141 341 103z"/>
</g>
</svg>
